<?xml version="1.0" encoding="UTF-8"?>
<svg id="Ebene_1" xmlns="http://www.w3.org/2000/svg" version="1.1" viewBox="0 0 512 512">
  <!-- Generator: Adobe Illustrator 29.4.0, SVG Export Plug-In . SVG Version: 2.1.0 Build 152)  -->
  <defs>
    <style>
      .st0 {
        fill: #52b686;
      }
    </style>
  </defs>
  <path class="st0" d="M337.24,85.1h-81.2c-21.67,0-42.03,8.49-57.41,23.8-13.55,13.47-21.82,31.27-23.5,50.23h162.11s0-74.03,0-74.03Z"/>
  <path class="st0" d="M225.06,400.25c13.55-13.55,21.89-31.41,23.5-50.3H86.53v74.03h-.07l81.2.07c21.75,0,42.1-8.49,57.41-23.8Z"/>
  <path class="st0" d="M313.44,311.87c13.55-13.55,21.89-31.34,23.5-50.3h-80.84c-25.48,0-49.42-9.96-67.44-27.97-16.11-16.11-25.92-37.42-27.68-60.04-19.11,1.61-37.05,9.96-50.6,23.5-13.55,13.55-21.89,31.41-23.5,50.3h80.84c25.48,0,49.42,9.96,67.44,27.97,16.11,16.11,25.92,37.42,27.68,60.04h.07c19.04-1.61,36.9-9.88,50.52-23.5Z"/>
  <path class="st0" d="M224.99,285.36c-15.3-15.38-35.73-23.8-57.41-23.8h-95.41v-7.1c0-25.48,9.96-49.42,27.97-67.44,16.18-16.18,37.56-25.99,60.33-27.75h.22c1.68-22.77,11.5-44.3,27.75-60.48,18.01-18.01,41.96-27.97,67.44-27.97h95.41v102.51h-176.24c1.61,18.96,9.96,36.83,23.43,50.3,15.38,15.38,35.73,23.8,57.41,23.8h95.41v7.1c0,25.48-9.96,49.42-27.97,67.44-16.26,16.26-37.71,26.07-60.55,27.68-1.61,22.77-11.42,44.3-27.68,60.55-5.49,5.56-11.64,10.32-18.16,14.28h131.14c42.18,0,76.44-34.27,76.44-76.44V79.46c0-42.18-34.27-76.44-76.44-76.44H79.5C37.32,3.02,3.06,37.29,3.06,79.46v268.58h-.07c0,39.69,30.46,72.42,69.27,76.08v-88.45h176.24c-1.68-18.96-9.96-36.76-23.5-50.3h0Z"/>
  <path class="st0" d="M440.56,88.03v260.08c0,50.96-41.44,92.48-92.48,92.48H87.99c4.03,38.37,36.54,68.39,76,68.39h268.58c42.18,0,76.44-34.27,76.44-76.44h-.07V164.03c0-39.47-30.02-71.98-68.39-76h0Z"/>
</svg>