<?xml version="1.0" encoding="UTF-8"?>
<svg id="Layer_1" xmlns="http://www.w3.org/2000/svg" version="1.1" viewBox="0 0 489.71 131.6">
  <!-- Generator: Adobe Illustrator 30.2.1, SVG Export Plug-In . SVG Version: 2.1.1 Build 1)  -->
  <defs>
    <style>
      .st0 {
        display: none;
      }
    </style>
  </defs>
  <g class="st0">
    <path d="M157.51,76.77c0,4.35,3.27,7.08,8.55,7.08,5.83,0,9.25-2.49,9.25-6.53,0-3.11-1.56-4.9-5.99-5.99l-6.45-1.63c-6.53-1.63-9.72-5.05-9.72-10.18,0-6.61,5.52-10.81,13.61-10.81s13.06,4.35,13.29,11.35h-5.21c-.16-4.35-3.19-6.92-8.24-6.92s-8.24,2.25-8.24,6.3c0,2.88,2.02,4.9,6.14,5.91l6.45,1.63c6.53,1.63,9.49,4.66,9.49,10.11,0,6.76-5.75,11.2-14.31,11.2s-13.76-4.51-13.76-11.51h5.14Z"/>
    <path d="M184.72,99.32h4.12c3.27,0,6.53-.23,8.4-5.29l1.63-4.43-15.24-39.88h5.68l12.13,32.81,11.9-32.81h5.52l-17.26,46.26c-2.18,5.91-5.83,8.32-11.2,8.32-2.25,0-3.97-.16-5.68-.54v-4.43h0Z"/>
    <path d="M226.86,76.77c0,4.35,3.27,7.08,8.55,7.08,5.83,0,9.25-2.49,9.25-6.53,0-3.11-1.56-4.9-5.99-5.99l-6.45-1.63c-6.53-1.63-9.72-5.05-9.72-10.18,0-6.61,5.52-10.81,13.61-10.81s13.06,4.35,13.29,11.35h-5.21c-.16-4.35-3.19-6.92-8.24-6.92s-8.24,2.25-8.24,6.3c0,2.88,2.02,4.9,6.14,5.91l6.45,1.63c6.53,1.63,9.49,4.66,9.49,10.11,0,6.76-5.75,11.2-14.31,11.2s-13.76-4.51-13.76-11.51h5.14Z"/>
    <path d="M262,87.34v-33.12h-7.54v-4.51h7.54v-11.9h5.29v11.9h7.54v4.51h-7.54v33.12h-5.29Z"/>
    <path d="M278.8,68.53c0-11.74,7.31-19.83,18.04-19.83s17.1,7.23,17.1,17.88v2.64h-29.93c.39,9.17,5.21,14.46,13.29,14.46,6.14,0,10.11-2.64,11.51-7.62h5.13c-2.02,7.93-7.85,12.21-16.72,12.21-11.04,0-18.43-7.93-18.43-19.75h0ZM284.16,65.34h24.41c0-7.23-4.66-12.05-11.74-12.05s-11.74,4.66-12.67,12.05Z"/>
    <path d="M322.49,87.34v-37.63h4.66l.62,5.36c1.87-3.97,6.06-6.38,11.35-6.38,5.91,0,10.34,3.11,12.13,8.01,1.71-4.9,6.3-8.01,12.36-8.01,8.16,0,13.53,5.29,13.53,13.99v24.65h-5.21v-23.56c0-6.45-3.58-10.26-9.33-10.26-6.3,0-10.03,4.74-10.03,10.57v23.25h-5.29v-23.64c0-6.38-3.65-10.11-9.33-10.11-6.3,0-10.11,4.66-10.11,10.42v23.32h-5.36v.02Z"/>
    <path d="M386.63,35.41c0-2.18,1.79-4.04,3.97-4.04s4.04,1.87,4.04,4.04-1.87,3.97-4.04,3.97-3.97-1.79-3.97-3.97ZM387.95,49.71h5.36v37.63h-5.36s0-37.63,0-37.63Z"/>
    <path d="M420.06,48.7c8.71,0,15.08,5.05,16.56,12.83h-5.36c-1.4-5.21-5.91-8.09-11.12-8.09-7.62,0-12.98,5.83-12.98,15.08s4.98,14.93,12.6,14.93c5.6,0,10.11-3.11,11.58-7.93h5.44c-1.79,7.7-8.47,12.75-17.03,12.75-10.65,0-17.88-7.85-17.88-19.67s7.23-19.9,18.19-19.9Z"/>
  </g>
  <path d="M119.46,42.93c-.53-6.48-5.97-11.59-12.59-11.59h-36.68c-6.97,0-12.63,5.67-12.63,12.63v36.68c0,6.61,5.11,12.05,11.58,12.59.54,6.48,5.97,11.58,12.59,11.58h36.68c6.97,0,12.63-5.67,12.63-12.63v-36.68c0-6.61-5.11-12.05-11.58-12.58ZM59.75,80.66v-36.68c0-5.76,4.68-10.44,10.44-10.44h36.68c5.76,0,10.44,4.68,10.44,10.44v36.68c0,5.76-4.68,10.44-10.44,10.44h-17.91c.89-.54,1.73-1.19,2.48-1.95,2.22-2.22,3.56-5.16,3.78-8.27,3.12-.22,6.05-1.56,8.27-3.78,2.46-2.46,3.82-5.73,3.82-9.21v-.97h-13.03c-2.96,0-5.74-1.15-7.84-3.25-1.84-1.84-2.98-4.28-3.2-6.87h24.07v-14h-13.03c-3.48,0-6.75,1.36-9.21,3.82-2.22,2.21-3.56,5.15-3.79,8.26h-.03c-3.11.24-6.03,1.58-8.24,3.79-2.46,2.46-3.82,5.73-3.82,9.21v.97h13.03c2.96,0,5.75,1.15,7.84,3.25,1.85,1.85,2.98,4.28,3.21,6.87h-24.07v12.08c-5.3-.5-9.46-4.97-9.46-10.39h0ZM83.25,54.86c.23-2.59,1.36-5.02,3.21-6.86,2.1-2.09,4.88-3.25,7.84-3.25h11.09v10.11h-22.14ZM95.23,78.93c-.24-3.09-1.58-6-3.78-8.2-2.46-2.46-5.73-3.82-9.21-3.82h-11.04c.22-2.58,1.36-5.02,3.21-6.87s4.3-2.99,6.91-3.21c.24,3.09,1.58,6,3.78,8.2,2.46,2.46,5.73,3.82,9.21,3.82h11.04c-.22,2.59-1.36,5.02-3.21,6.87-1.86,1.86-4.3,2.99-6.9,3.21h-.01ZM71.15,91.03v-10.11h22.13c-.22,2.58-1.36,5.02-3.21,6.87-2.09,2.09-4.87,3.25-7.84,3.25h-11.09.01ZM128.85,92.2c0,5.76-4.68,10.44-10.44,10.44h-36.68c-5.39,0-9.83-4.1-10.38-9.34h35.52c6.97,0,12.63-5.67,12.63-12.63v-35.52c5.24.55,9.34,4.99,9.34,10.38v36.68h0Z"/>
  <g>
    <path d="M157.6,76.92s4.31,4.46,10.95,4.46c3.17,0,6.34-1.66,6.34-4.76,0-7.02-19.64-5.59-19.64-18.05,0-6.95,6.19-10.88,13.82-10.88,8.38,0,12.31,4.23,12.31,4.23l-2.95,5.51s-3.4-3.4-9.44-3.4c-3.17,0-6.27,1.36-6.27,4.68,0,6.87,19.64,5.36,19.64,17.9,0,6.34-5.44,11.1-13.82,11.1-9.37,0-14.5-5.59-14.5-5.59l3.55-5.21Z"/>
    <path d="M188.19,94.75s2.11,1.59,4.46,1.59c2.95,0,5.44-2.11,6.87-5.59l1.89-4.38-16.01-37.77h8.23l9.59,25c.75,1.96,1.44,4.61,1.44,4.61h.15s.6-2.57,1.28-4.53l9.29-25.08h7.93l-17.9,45.09c-2.34,5.89-7.02,8.99-12.39,8.99-4.31,0-7.4-2.34-7.4-2.34l2.57-5.59Z"/>
    <path d="M229.95,76.92s4.31,4.46,10.95,4.46c3.17,0,6.34-1.66,6.34-4.76,0-7.02-19.64-5.59-19.64-18.05,0-6.95,6.19-10.88,13.82-10.88,8.38,0,12.31,4.23,12.31,4.23l-2.95,5.51s-3.4-3.4-9.44-3.4c-3.17,0-6.27,1.36-6.27,4.68,0,6.87,19.64,5.36,19.64,17.9,0,6.34-5.44,11.1-13.82,11.1-9.37,0-14.5-5.59-14.5-5.59l3.55-5.21Z"/>
    <path d="M264.92,55.02h-4.98v-5.89h5.21v-11.03h7.1v11.03h9.21v5.89h-9.21v16.99c0,7.63,5.36,8.61,8.16,8.61,1.06,0,1.74-.15,1.74-.15v6.5s-1.06.15-2.57.15c-4.91,0-14.65-1.51-14.65-14.28v-17.82Z"/>
    <path d="M306.84,47.69c10.8,0,16.54,8.01,16.54,17.9,0,.98-.23,3.17-.23,3.17h-27.87c.38,8.38,6.34,12.61,13.14,12.61s11.33-4.46,11.33-4.46l3.02,5.36s-5.67,5.44-14.8,5.44c-12.01,0-20.24-8.69-20.24-20.02,0-12.16,8.23-20.02,19.11-20.02ZM315.9,63.25c-.23-6.57-4.3-9.74-9.21-9.74-5.59,0-10.12,3.47-11.18,9.74h20.39Z"/>
    <path d="M332.29,48.6h7.1v5.06c0,1.51-.15,2.79-.15,2.79h.15c1.81-4.46,7.18-8.76,13.14-8.76,6.42,0,10.2,2.95,11.48,8.69h.15c2.12-4.61,7.4-8.69,13.6-8.69,8.61,0,12.61,4.91,12.61,14.65v24.47h-7.33v-22.89c0-5.36-1.06-9.59-6.8-9.59-5.36,0-9.37,4.53-10.73,9.74-.38,1.59-.53,3.32-.53,5.29v17.45h-7.33v-22.89c0-4.99-.76-9.59-6.65-9.59-5.59,0-9.52,4.61-10.95,10.05-.38,1.51-.45,3.25-.45,4.99v17.45h-7.33v-38.22Z"/>
    <path d="M401.25,33.49h7.4v7.48h-7.4v-7.48ZM401.32,48.6h7.33v38.22h-7.33v-38.22Z"/>
    <path d="M437.88,47.69c9.59,0,14.35,5.59,14.35,5.59l-3.47,5.14s-4.08-4.38-10.57-4.38c-7.7,0-13.29,5.74-13.29,13.6s5.59,13.75,13.52,13.75c7.1,0,11.78-5.14,11.78-5.14l2.95,5.36s-5.29,6.12-15.26,6.12c-12.01,0-20.47-8.54-20.47-20.02s8.46-20.02,20.47-20.02Z"/>
  </g>
</svg>