<?xml version="1.0" encoding="UTF-8"?>
<svg id="Layer_1" xmlns="http://www.w3.org/2000/svg" version="1.1" viewBox="0 0 489.71 131.6">
  <!-- Generator: Adobe Illustrator 30.2.1, SVG Export Plug-In . SVG Version: 2.1.1 Build 1)  -->
  <defs>
    <style>
      .st0 {
        fill: #fff;
      }
    </style>
  </defs>
  <g>
    <path class="st0" d="M161.48,80.74c0,4.35,3.27,7.08,8.55,7.08,5.83,0,9.25-2.49,9.25-6.53,0-3.11-1.56-4.9-5.99-5.99l-6.45-1.63c-6.53-1.63-9.72-5.05-9.72-10.18,0-6.61,5.52-10.81,13.61-10.81s13.06,4.35,13.29,11.35h-5.21c-.16-4.35-3.19-6.92-8.24-6.92s-8.24,2.25-8.24,6.3c0,2.88,2.02,4.9,6.14,5.91l6.45,1.63c6.53,1.63,9.49,4.66,9.49,10.11,0,6.76-5.75,11.2-14.31,11.2s-13.76-4.51-13.76-11.51h5.13Z"/>
    <path class="st0" d="M188.69,103.29h4.12c3.27,0,6.53-.23,8.4-5.29l1.63-4.43-15.24-39.88h5.68l12.13,32.81,11.9-32.81h5.52l-17.26,46.26c-2.18,5.91-5.83,8.32-11.2,8.32-2.25,0-3.97-.16-5.68-.54v-4.43Z"/>
    <path class="st0" d="M230.83,80.74c0,4.35,3.27,7.08,8.55,7.08,5.83,0,9.25-2.49,9.25-6.53,0-3.11-1.56-4.9-5.99-5.99l-6.45-1.63c-6.53-1.63-9.72-5.05-9.72-10.18,0-6.61,5.52-10.81,13.61-10.81s13.06,4.35,13.29,11.35h-5.21c-.16-4.35-3.19-6.92-8.24-6.92s-8.24,2.25-8.24,6.3c0,2.88,2.02,4.9,6.14,5.91l6.45,1.63c6.53,1.63,9.49,4.66,9.49,10.11,0,6.76-5.75,11.2-14.31,11.2s-13.76-4.51-13.76-11.51h5.13Z"/>
    <path class="st0" d="M265.97,91.31v-33.12h-7.54v-4.51h7.54v-11.9h5.29v11.9h7.54v4.51h-7.54v33.12h-5.29Z"/>
    <path class="st0" d="M282.76,72.5c0-11.74,7.31-19.83,18.04-19.83s17.1,7.23,17.1,17.88v2.64h-29.93c.39,9.17,5.21,14.46,13.29,14.46,6.14,0,10.11-2.64,11.51-7.62h5.13c-2.02,7.93-7.85,12.21-16.72,12.21-11.04,0-18.43-7.93-18.43-19.75ZM288.13,69.31h24.41c0-7.23-4.66-12.05-11.74-12.05s-11.74,4.66-12.67,12.05Z"/>
    <path class="st0" d="M326.46,91.31v-37.63h4.66l.62,5.36c1.87-3.97,6.06-6.38,11.35-6.38,5.91,0,10.34,3.11,12.13,8.01,1.71-4.9,6.3-8.01,12.36-8.01,8.16,0,13.53,5.29,13.53,13.99v24.65h-5.21v-23.56c0-6.45-3.58-10.26-9.33-10.26-6.3,0-10.03,4.74-10.03,10.57v23.25h-5.29v-23.64c0-6.38-3.65-10.11-9.33-10.11-6.3,0-10.11,4.66-10.11,10.42v23.32h-5.36Z"/>
    <path class="st0" d="M390.6,39.38c0-2.18,1.79-4.04,3.97-4.04s4.04,1.87,4.04,4.04-1.87,3.97-4.04,3.97-3.97-1.79-3.97-3.97ZM391.92,53.68h5.36v37.63h-5.36v-37.63Z"/>
    <path class="st0" d="M424.03,52.67c8.71,0,15.08,5.05,16.56,12.83h-5.36c-1.4-5.21-5.91-8.09-11.12-8.09-7.62,0-12.98,5.83-12.98,15.08s4.98,14.93,12.6,14.93c5.6,0,10.11-3.11,11.58-7.93h5.44c-1.79,7.7-8.47,12.75-17.03,12.75-10.65,0-17.88-7.85-17.88-19.67s7.23-19.9,18.19-19.9Z"/>
  </g>
  <path class="st0" d="M121.45,36.34c-.63-7.59-6.99-13.57-14.74-13.57h-42.95c-8.16,0-14.79,6.64-14.79,14.79v42.95c0,7.74,5.98,14.11,13.56,14.74.63,7.58,7,13.56,14.74,13.56h42.95c8.16,0,14.79-6.64,14.79-14.79v-42.95c0-7.74-5.98-14.11-13.56-14.74ZM51.53,80.52v-42.95c0-6.74,5.48-12.22,12.22-12.22h42.95c6.74,0,12.22,5.48,12.22,12.22v42.95c0,6.74-5.48,12.22-12.22,12.22h-20.97c1.04-.63,2.02-1.4,2.9-2.28,2.6-2.6,4.17-6.04,4.43-9.69,3.65-.26,7.09-1.83,9.69-4.43,2.88-2.88,4.47-6.71,4.47-10.79v-1.14h-15.26c-3.46,0-6.72-1.35-9.18-3.8-2.16-2.16-3.49-5.01-3.75-8.04h28.18s0-16.39,0-16.39h-15.26c-4.07,0-7.9,1.59-10.78,4.47-2.6,2.59-4.17,6.03-4.43,9.68h-.03c-3.64.28-7.06,1.85-9.65,4.44-2.88,2.88-4.47,6.71-4.47,10.79v1.14h15.26c3.47,0,6.73,1.35,9.18,3.8,2.16,2.16,3.49,5.01,3.75,8.04h-28.19v14.15c-6.2-.58-11.07-5.82-11.07-12.17ZM79.05,50.3c.26-3.03,1.59-5.88,3.75-8.03,2.45-2.45,5.71-3.8,9.18-3.8h12.98v11.84h-25.91ZM93.07,78.49c-.28-3.62-1.85-7.02-4.42-9.6-2.88-2.88-6.71-4.47-10.79-4.47h-12.93c.26-3.03,1.59-5.88,3.76-8.04,2.17-2.17,5.04-3.5,8.09-3.75.28,3.62,1.84,7.02,4.42,9.6,2.88,2.88,6.71,4.47,10.79,4.47h12.93c-.26,3.03-1.59,5.88-3.76,8.04-2.17,2.17-5.04,3.5-8.08,3.76ZM64.88,92.66v-11.84h25.91c-.26,3.03-1.59,5.88-3.76,8.04-2.45,2.45-5.71,3.8-9.18,3.8h-12.98ZM132.44,94.03c0,6.74-5.48,12.22-12.22,12.22h-42.95c-6.31,0-11.51-4.8-12.15-10.94h41.59c8.16,0,14.79-6.64,14.79-14.79v-41.59c6.14.64,10.94,5.84,10.94,12.15v42.95Z"/>
</svg>